<svg xmlns="http://www.w3.org/2000/svg" width="512" height="512" viewBox="0 0 516.375 516.375"><path d="M352.233 226.839V182.95c0-51.411-42.634-94.046-94.045-94.046-51.413 0-94.047 42.635-94.047 94.047v43.888c-21.317 0-37.618 16.301-37.618 37.619v62.697c0 55.174 45.142 100.316 100.316 100.316h62.697c55.174 0 100.316-45.142 100.316-100.316v-62.698c0-20.063-16.301-37.618-37.619-37.618zM264.457 325.9v32.603c0 3.761-2.508 6.269-6.27 6.269s-6.269-2.508-6.269-6.27V325.9c-7.523-2.508-12.54-10.032-12.54-17.555 0-10.032 8.779-18.81 18.81-18.81s18.81 8.778 18.81 18.81c-.001 8.777-5.017 15.047-12.54 17.555zm50.158-99.062H201.76V182.95c0-31.348 25.079-56.427 56.427-56.427s56.427 25.079 56.427 56.427v43.889z" data-original="#000000" class="active-path"/></svg>